HIERARCHY
ROOT Hips
{
  OFFSET -13.8101 37.1238 36.3411
  CHANNELS 6 Xposition Yposition Zposition Zrotation Xrotation Yrotation
  JOINT Spine
  {
    OFFSET 0 0 9.09008
    CHANNELS 6 Xposition Yposition Zposition Zrotation Xrotation Yrotation
    JOINT Head
    {
      OFFSET 0 0 15.9751
      CHANNELS 6 Xposition Yposition Zposition Zrotation Xrotation Yrotation
      End Site
      {
        OFFSET 0 0 4.52755
      }
    }
    JOINT LeftShoulder
    {
      OFFSET 0 0 12.5984
      CHANNELS 6 Xposition Yposition Zposition Zrotation Xrotation Yrotation
      JOINT LeftArm
      {
        OFFSET -7.874 0 0
        CHANNELS 6 Xposition Yposition Zposition Zrotation Xrotation Yrotation
        JOINT LeftForeArm
        {
          OFFSET -12.9921 0 0
          CHANNELS 6 Xposition Yposition Zposition Zrotation Xrotation Yrotation
          JOINT LeftHand
          {
            OFFSET -10.3081 0 0
            CHANNELS 6 Xposition Yposition Zposition Zrotation Xrotation Yrotation
            JOINT LeftHandPinky1
            {
              OFFSET -2.81979 -0.13815 0
              CHANNELS 6 Xposition Yposition Zposition Zrotation Xrotation Yrotation
              End Site
              {
                OFFSET -1.9685 0 0
              }
            }
            JOINT LeftHandIndex1
            {
              OFFSET -4.14743 0.13815 0
              CHANNELS 6 Xposition Yposition Zposition Zrotation Xrotation Yrotation
              End Site
              {
                OFFSET -2.3622 0 0
              }
            }
          }
        }
      }
    }
    JOINT RightShoulder
    {
      OFFSET 0 0 12.5984
      CHANNELS 6 Xposition Yposition Zposition Zrotation Xrotation Yrotation
      JOINT RightArm
      {
        OFFSET 7.874 0 0
        CHANNELS 6 Xposition Yposition Zposition Zrotation Xrotation Yrotation
        JOINT RightForeArm
        {
          OFFSET 12.9921 0 0
          CHANNELS 6 Xposition Yposition Zposition Zrotation Xrotation Yrotation
          JOINT RightHand
          {
            OFFSET 10.3081 0 0
            CHANNELS 6 Xposition Yposition Zposition Zrotation Xrotation Yrotation
            JOINT RightHandPinky1
            {
              OFFSET 2.94832 -0.17528 0
              CHANNELS 6 Xposition Yposition Zposition Zrotation Xrotation Yrotation
              End Site
              {
                OFFSET 1.9685 0 0
              }
            }
            JOINT RightHandIndex1
            {
              OFFSET 3.46188 0.17528 0
              CHANNELS 6 Xposition Yposition Zposition Zrotation Xrotation Yrotation
              End Site
              {
                OFFSET 2.3622 0 0
              }
            }
          }
        }
      }
    }
  }
  JOINT LeftUpLeg
  {
    OFFSET -4.08853 0 0
    CHANNELS 6 Xposition Yposition Zposition Zrotation Xrotation Yrotation
    JOINT LeftLeg
    {
      OFFSET 0 0 -17.3605
      CHANNELS 6 Xposition Yposition Zposition Zrotation Xrotation Yrotation
      JOINT LeftFoot
      {
        OFFSET 0 0 -16.1351
        CHANNELS 6 Xposition Yposition Zposition Zrotation Xrotation Yrotation
        JOINT LeftToeBase
        {
          OFFSET 0 5.10779 -1.36863
          CHANNELS 6 Xposition Yposition Zposition Zrotation Xrotation Yrotation
          End Site
          {
            OFFSET 0 1.77165 0
          }
        }
      }
    }
  }
  JOINT RightUpLeg
  {
    OFFSET 4.08853 0 0
    CHANNELS 6 Xposition Yposition Zposition Zrotation Xrotation Yrotation
    JOINT RightLeg
    {
      OFFSET 0 0 -17.3605
      CHANNELS 6 Xposition Yposition Zposition Zrotation Xrotation Yrotation
      JOINT RightFoot
      {
        OFFSET 0 0 -16.1351
        CHANNELS 6 Xposition Yposition Zposition Zrotation Xrotation Yrotation
        JOINT RightToeBase
        {
          OFFSET 0 5.10779 -1.36863
          CHANNELS 6 Xposition Yposition Zposition Zrotation Xrotation Yrotation
          End Site
          {
            OFFSET 0 1.77165 0
          }
        }
      }
    }
  }
}
MOTION
Frames:	10
Frame Time:	0.0416667
-17.1136 65.4766 -98.7706 74.7934 -23.4785 87.0465 0 0 9.09008 -9.34509 -33.3787 -1.21112 -1e-005 -7.10543e-015 15.9751 21.23 -6.82318 -6.6363 -1e-005 -7.10543e-015 12.5984 7.21219 -32.6177 3.31993 -7.874 0 0 -5.13227 21.7065 -79.3381 -12.9921 1e-005 -7.10543e-015 -38.4406 -22.4268 8.60197e-016 -10.3081 0 0 11.2426 2.94922 14.5117 -2.81979 -0.13815 0 0.00708359 -0.0105464 -55.1034 -4.14743 0.13815 0 -11.0526 12.6903 -48.3576 -1e-005 -7.10543e-015 12.5984 -7.96395 -36.9514 -6.1205 7.874 -7.10543e-015 1e-005 51.7335 26.6335 41.1143 12.9921 -1e-005 1e-005 28.6922 34.8083 -5.32632e-015 10.3081 0 1e-005 -10.1566 5.84877 -29.6323 2.94832 -0.17528 0 -1.99082 -3.23418 58.3608 3.46188 0.17528 0 9.16544 8.20365 41.4892 -4.08853 0 0 17.9964 0.3881 2.03729 1e-005 7.10543e-015 -17.3605 2.17698e-015 -25.6135 3.19649e-015 1e-005 0 -16.1351 10.0248 8.14963 -2.06835 0 5.10779 -1.36863 7.42557e-016 8.59525 3.51825e-016 4.08853 0 0 -39.4165 -6.19153 -5.48579 1e-005 0 -17.3605 -2.57773e-016 -14.5393 -1.02681e-015 1e-005 0 -16.1351 -22.1214 10.1254 2.88571 0 5.10779 -1.36863 5.44209e-016 9.2511 1.56088e-015 
-17.0985 65.4211 -98.5113 75.2743 -22.3763 87.4023 -1.42109e-014 0 9.09008 -8.27151 -33.7398 -1.87656 -1e-005 -7.10543e-015 15.9751 21.5115 -6.79966 -6.93 -1e-005 3.55271e-015 12.5984 6.91432 -32.7234 2.86339 -7.874 0 -1.42109e-014 -3.99581 21.4472 -79.7513 -12.9921 1e-005 0 -37.4765 -23.3062 3.46313e-015 -10.3081 1.42109e-014 0 11.4593 2.95598 14.2728 -2.81979 -0.13815 -7.10543e-015 -0.141111 0.201382 -54.9804 -4.14743 0.13815 0 -11.0692 12.832 -48.6241 -1e-005 3.55271e-015 12.5984 -7.35576 -36.8438 -5.97088 7.874 0 1e-005 52.9941 26.8443 39.4588 12.9921 -1e-005 1e-005 28.9699 34.8329 -9.68711e-015 10.3081 0 1e-005 -10.1282 5.82177 -29.5893 2.94832 -0.17528 0 -2.06073 -3.30534 58.0329 3.46188 0.17528 1.42109e-014 9.05652 8.1067 41.4991 -4.08853 1.42109e-014 0 14.8385 -1.57536 0.724023 1e-005 0 -17.3605 1.74362e-015 -21.0917 4.26117e-016 1e-005 0 -16.1351 12.1189 8.21403 -0.303965 -1.42109e-014 5.10779 -1.36863 1.07556e-015 8.0295 -2.00753e-015 4.08853 1.42109e-014 0 -39.6898 -4.65465 -5.49044 1e-005 0 -17.3605 -1.46746e-017 -16.4512 -5.18175e-017 1e-005 1.42109e-014 -16.1351 -22.9908 10.4686 3.56153 1.77636e-015 5.10779 -1.36863 -8.28497e-016 9.526 2.01564e-016 
-17.071 65.4341 -98.2779 75.7817 -21.3557 87.8666 -1.42109e-014 0 9.09008 -6.79464 -34.066 -2.8731 -1e-005 0 15.9751 21.4592 -7.08098 -6.86669 -1e-005 3.55271e-015 12.5984 6.91117 -32.6345 2.93218 -7.874 1.42109e-014 0 -4.28179 21.496 -79.383 -12.9921 1e-005 -7.10543e-015 -36.7945 -23.4053 -1.64622e-014 -10.3081 0 -3.55271e-015 11.4733 2.91674 14.0743 -2.81979 -0.13815 0 -0.238626 0.341298 -55.0428 -4.14743 0.13815 7.10543e-015 -11.3773 13.0441 -48.2813 -1e-005 3.55271e-015 12.5984 -8.15958 -40.3557 -5.98761 7.874 -1.42109e-014 1e-005 57.7414 28.3371 33.4831 12.9921 -1e-005 1e-005 28.1653 35.9168 8.83629e-015 10.3081 7.10543e-015 1e-005 -9.62958 5.65246 -30.1352 2.94832 -0.17528 0 -1.89203 -3.10068 58.5864 3.46188 0.17528 1.42109e-014 9.11062 8.20905 41.6818 -4.08853 0 0 12.3157 -0.00508172 -0.261828 1e-005 0 -17.3605 -1.25793e-015 -22.6834 8.61799e-016 1e-005 3.55271e-015 -16.1351 13.2113 7.72153 -0.167976 0 5.10779 -1.36863 -1.67775e-015 8.34485 6.02735e-016 4.08853 0 0 -40.0497 -3.18969 -5.51394 1e-005 1.42109e-014 -17.3605 3.56825e-015 -18.007 1.25414e-015 1e-005 -1.42109e-014 -16.1351 -23.2185 10.4011 4.02445 -5.32907e-015 5.10779 -1.36863 2.41986e-015 9.83136 -2.01747e-016 
-17.177 65.4612 -98.0806 75.8483 -20.2903 87.672 -1.42109e-014 0 9.09008 -5.09249 -34.3885 -2.90685 -1e-005 -7.10543e-015 15.9751 21.7013 -7.74557 -7.36323 -1e-005 7.10543e-015 12.5984 6.96486 -32.1903 2.82163 -7.874 -7.10543e-015 0 -4.82791 20.8679 -79.0635 -12.9921 1e-005 0 -37.2684 -23.0038 -7.77449e-015 -10.3081 0 0 11.6419 2.90109 13.8013 -2.81979 -0.13815 7.10543e-015 -0.00345207 0.00479969 -54.7785 -4.14743 0.13815 7.10543e-015 -10.7431 12.5789 -48.9373 -1e-005 7.10543e-015 12.5984 -8.63354 -41.904 -7.01572 7.874 -7.10543e-015 1e-005 59.7097 29.5462 31.1987 12.9921 -1e-005 1e-005 28.4345 36.0406 5.90011e-015 10.3081 7.10543e-015 1e-005 -9.86298 5.6908 -29.698 2.94832 -0.17528 1.42109e-014 -1.80609 -2.87137 57.8111 3.46188 0.17528 1.42109e-014 10.0715 8.73499 40.5313 -4.08853 0 -7.10543e-015 12.2585 -0.192784 -0.296251 1e-005 7.10543e-015 -17.3605 -3.99545e-015 -22.2906 -2.14839e-015 1e-005 0 -16.1351 12.341 7.90375 0.722043 -1.42109e-014 5.10779 -1.36863 8.5253e-016 8.21417 -4.0169e-016 4.08853 0 0 -40.5747 -2.52595 -5.86176 1e-005 0 -17.3605 -3.25173e-015 -19.7004 -2.11143e-016 1e-005 -1.42109e-014 -16.1351 -22.8637 9.67065 5.48293 -1.77636e-015 5.10779 -1.36863 -8.34758e-016 11.2718 2.02694e-016 
-17.3624 65.5126 -97.8275 75.8682 -18.9144 87.6578 0 0 9.09008 -4.36568 -34.3047 -3.3441 -1e-005 3.55271e-015 15.9751 22.144 -7.99911 -7.62523 -1e-005 7.10543e-015 12.5984 7.09391 -33.0829 2.47223 -7.874 0 0 -5.52139 21.3255 -78.4711 -12.9921 1e-005 0 -38.3071 -21.7113 -2.56756e-015 -10.3081 1.42109e-014 -3.55271e-015 11.5982 2.92625 13.9699 -2.81979 -0.13815 7.10543e-015 -0.00363702 0.00554916 -54.4933 -4.14743 0.13815 7.10543e-015 -10.8849 12.5039 -48.3876 -1e-005 7.10543e-015 12.5984 -8.52379 -41.538 -7.02703 7.874 1.42109e-014 1e-005 60.4442 29.3656 30.5901 12.9921 -1e-005 1e-005 29.0731 35.7537 9.79794e-015 10.3081 0 1e-005 -9.9034 5.47326 -28.6485 2.94832 -0.17528 0 -1.85598 -2.80817 56.5181 3.46188 0.17528 0 10.4475 8.82034 39.7464 -4.08853 0 7.10543e-015 11.3844 -1.1129 -0.707005 1e-005 -7.10543e-015 -17.3605 -2.72967e-015 -20.7084 1.27509e-015 1e-005 0 -16.1351 11.7631 7.65053 1.99686 -1.42109e-014 5.10779 -1.36863 1.53244e-015 8.27747 4.01755e-016 4.08853 -7.10543e-015 -7.10543e-015 -41.2314 -0.918977 -6.77241 1e-005 1.42109e-014 -17.3605 1.02156e-015 -23.1831 2.59495e-015 1e-005 1.42109e-014 -16.1351 -21.5951 8.47071 8.12398 1.77636e-015 5.10779 -1.36863 -2.88213e-016 13.5849 1.22704e-015 
-17.5581 65.5635 -97.5396 76.3208 -16.0038 87.9963 1.42109e-014 0 9.09008 -5.02829 -33.3619 -3.80903 -1e-005 -3.55271e-015 15.9751 22.3696 -8.2074 -7.44547 -1e-005 0 12.5984 7.15966 -33.5406 2.46219 -7.874 -1.42109e-014 0 -6.19003 21.6557 -78.1754 -12.9921 1e-005 0 -38.6871 -21.5849 -5.13063e-015 -10.3081 0 -7.10543e-015 11.0982 2.86181 14.2794 -2.81979 -0.13815 7.10543e-015 -0.383237 0.541928 -54.7549 -4.14743 0.13815 0 -11.1057 12.7502 -48.3485 -1e-005 0 12.5984 -9.16799 -43.5117 -6.89885 7.874 -7.10543e-015 1e-005 62.3569 29.8498 27.7389 12.9921 -1e-005 1e-005 29.5341 36.3613 1.33297e-014 10.3081 7.10543e-015 1e-005 -9.51001 5.30195 -28.8809 2.94832 -0.17528 0 -1.71996 -2.63804 56.8793 3.46188 0.17528 -1.42109e-014 10.1805 8.70039 40.1101 -4.08853 0 0 8.4967 -1.15394 -1.56645 1e-005 0 -17.3605 7.16089e-016 -19.8107 2.11289e-015 1e-005 -7.10543e-015 -16.1351 11.8192 7.36263 2.62307 0 5.10779 -1.36863 1.75865e-015 8.03527 -1.20453e-015 4.08853 0 0 -42.0109 2.60223 -7.48535 1e-005 0 -17.3605 -6.81601e-015 -29.7742 -9.1607e-016 1e-005 0 -16.1351 -22.025 6.02144 12.7431 3.55271e-015 5.10779 -1.36863 -2.42967e-016 16.9914 8.31432e-016 
-17.8705 65.6169 -97.2157 75.9271 -12.4111 88.8941 0 -7.10543e-015 9.09008 -6.25443 -33.0868 -5.03494 -1e-005 0 15.9751 22.3065 -8.20299 -7.29652 -1e-005 0 12.5984 7.01715 -33.2365 2.86599 -7.874 -1.42109e-014 0 -6.94407 21.5727 -77.8742 -12.9921 1e-005 7.10543e-015 -39.2445 -21.8058 -5.1385e-015 -10.3081 0 0 11.2797 2.83289 13.9173 -2.81979 -0.13815 0 -0.257087 0.361845 -54.6444 -4.14743 0.13815 7.10543e-015 -10.8645 12.5964 -48.6498 -1e-005 0 12.5984 -9.39747 -44.5603 -6.55564 7.874 0 1e-005 62.1098 31.0198 27.3182 12.9921 -1e-005 1e-005 30.3698 36.1141 8.85844e-015 10.3081 0 1e-005 -9.16954 5.11917 -28.9325 2.94832 -0.17528 0 -1.72896 -2.60967 56.4548 3.46188 0.17528 1.42109e-014 9.8903 8.42509 40.041 -4.08853 -7.10543e-015 0 4.5912 -2.74397 -3.20782 1e-005 0 -17.3605 1.84386e-015 -17.6884 8.34596e-016 1e-005 3.55271e-015 -16.1351 11.9105 6.54143 3.52772 1.42109e-014 5.10779 -1.36863 -5.5208e-017 7.90575 4.01384e-016 4.08853 0 -7.10543e-015 -42.3464 7.14981 -9.68299 1e-005 0 -17.3605 -1.45902e-014 -38.4375 -8.12105e-015 1e-005 0 -16.1351 -21.8284 1.76263 15.9974 -7.10543e-015 5.10779 -1.36863 3.19112e-016 21.867 -8.56784e-016 
-18.2243 65.6439 -96.8954 75.3026 -8.31583 89.9483 1.42109e-014 -7.10543e-015 9.09008 -7.01597 -32.9209 -5.60299 -1e-005 1.77636e-015 15.9751 21.9951 -8.45796 -7.72322 -1e-005 -1.77636e-015 12.5984 6.71494 -31.9319 2.92631 -7.874 -7.10543e-015 1.42109e-014 -8.51 20.8717 -76.8971 -12.9921 1e-005 0 -40.0128 -21.7233 8.55925e-016 -10.3081 -1.42109e-014 0 11.5238 2.81855 13.5596 -2.81979 -0.13815 0 0.0319444 -0.0441566 -54.1168 -4.14743 0.13815 0 -10.6686 12.3723 -48.6774 -1e-005 -1.77636e-015 12.5984 -10.006 -46.1523 -6.22301 7.874 -7.10543e-015 1e-005 61.9287 31.6235 26.5733 12.9921 -1e-005 1e-005 31.0138 36.7272 3.22424e-015 10.3081 0 1e-005 -8.86638 4.99856 -29.1855 2.94832 -0.17528 0 -1.63256 -2.49658 56.8031 3.46188 0.17528 0 10.1011 8.42281 39.4278 -4.08853 -7.10543e-015 0 1.00337 -4.31033 -4.88804 1e-005 0 -17.3605 -1.13372e-015 -16.0185 1.65452e-015 1e-005 -3.55271e-015 -16.1351 11.278 5.93957 4.85352 -1.42109e-014 5.10779 -1.36863 -5.54028e-017 7.9333 4.01411e-016 4.08853 -7.10543e-015 0 -43.2903 11.3357 -12.4403 1e-005 0 -17.3605 -1.64934e-015 -46.0445 -2.29114e-015 1e-005 -1.42109e-014 -16.1351 -20.5934 -2.14573 11.3893 -3.55271e-015 5.10779 -1.36863 -1.94817e-015 24.2326 8.71971e-016 
-18.5187 65.6765 -96.6401 74.9245 -3.79251 90.9384 0 0 9.09008 -7.19762 -32.6318 -5.46131 -1e-005 0 15.9751 21.5325 -8.7499 -8.13284 -1e-005 0 12.5984 6.46514 -30.9615 2.83098 -7.874 0 0 -8.98196 21.1361 -76.3959 -12.9921 1e-005 0 -41.2045 -21.8025 4.71018e-015 -10.3081 0 0 11.2935 2.77011 13.6043 -2.81979 -0.13815 -7.10543e-015 -0.179722 0.246758 -53.9613 -4.14743 0.13815 -7.10543e-015 -10.8384 12.6336 -48.8022 -1e-005 0 12.5984 -9.82925 -44.9936 -6.0587 7.874 0 1e-005 59.1932 31.4832 29.9435 12.9921 -1e-005 1e-005 31.0572 36.3916 -1.32115e-014 10.3081 7.10543e-015 1e-005 -8.94911 5.02359 -29.0771 2.94832 -0.17528 0 -1.66848 -2.56195 56.9101 3.46188 0.17528 0 10.2769 8.5336 39.2969 -4.08853 -7.10543e-015 7.10543e-015 -2.20133 -5.24561 -6.13865 1e-005 7.10543e-015 -17.3605 -1.00541e-015 -14.8125 -8.22471e-016 1e-005 3.55271e-015 -16.1351 9.84417 5.42204 6.09585 1.42109e-014 5.10779 -1.36863 3.43467e-016 7.74936 4.01234e-016 4.08853 0 -1.42109e-014 -43.2191 13.7612 -14.2692 1e-005 0 -17.3605 -7.5802e-015 -50.9662 2.52514e-015 1e-005 0 -16.1351 -20.2056 -0.513916 10.1834 -3.55271e-015 5.10779 -1.36863 0 26.3587 -0 
-18.7574 65.7345 -96.4619 74.7791 0.281423 91.9363 0 0 9.09008 -7.10014 -32.2649 -5.49031 -1e-005 3.55271e-015 15.9751 21.1748 -8.8841 -8.37228 -1e-005 -3.55271e-015 12.5984 6.64861 -31.5875 2.82793 -7.874 -1.42109e-014 0 -8.70232 22.9691 -76.1333 -12.9921 1e-005 0 -43.2811 -21.1052 -1.70462e-015 -10.3081 0 1.42109e-014 10.8471 2.80867 14.3457 -2.81979 -0.13815 -7.10543e-015 -0.114271 0.161562 -54.7143 -4.14743 0.13815 -7.10543e-015 -11.1077 12.6747 -48.1781 -1e-005 -3.55271e-015 12.5984 -9.15761 -43.2078 -5.86716 7.874 0 1e-005 56.6748 30.335 33.7171 12.9921 -1e-005 1e-005 30.6594 35.8262 -2.6356e-015 10.3081 0 1e-005 -9.48566 5.25226 -28.7167 2.94832 -0.17528 -1.42109e-014 -1.84098 -2.84048 57.0308 3.46188 0.17528 0 10.2807 8.64143 39.6366 -4.08853 -7.10543e-015 7.10543e-015 -4.83667 -6.23639 -7.09971 1e-005 7.10543e-015 -17.3605 -2.56711e-015 -12.8718 -8.15635e-016 1e-005 3.55271e-015 -16.1351 8.23195 4.43822 6.82494 -1.42109e-014 5.10779 -1.36863 2.37481e-016 7.64467 1.2034e-015 4.08853 -7.10543e-015 0 -40.4406 14.7738 -14.8184 1e-005 0 -17.3605 -8.36344e-015 -53.8822 5.39582e-015 1e-005 0 -16.1351 -19.0522 2.19143 9.57664 3.55271e-015 5.10779 -1.36863 2.32573e-015 25.9888 -5.30753e-015 
